<mxfile host="app.diagrams.net" agent="Mozilla/5.0 (Macintosh; Intel Mac OS X 10_15_7) AppleWebKit/605.1.15 (KHTML, like Gecko) Version/18.0.1 Safari/605.1.15" version="24.8.2">
  <diagram name="Page-1" id="Zofs04m2fMbGt7xmjwqV">
    <mxGraphModel dx="1122" dy="732" grid="1" gridSize="10" guides="1" tooltips="1" connect="1" arrows="1" fold="1" page="1" pageScale="1" pageWidth="827" pageHeight="1169" math="0" shadow="0">
      <root>
        <mxCell id="0" />
        <mxCell id="1" parent="0" />
        <mxCell id="WG5gfJBIS_Pp4yApW_4x-1" value="«device»&lt;br&gt;&lt;div&gt;Database server&lt;/div&gt;" style="verticalAlign=top;align=center;shape=cube;size=10;direction=south;fontStyle=0;html=1;boundedLbl=1;spacingLeft=5;whiteSpace=wrap;" vertex="1" parent="1">
          <mxGeometry x="510" y="210" width="240" height="380" as="geometry" />
        </mxCell>
        <mxCell id="WG5gfJBIS_Pp4yApW_4x-2" value="«database system»&lt;br&gt;&lt;div&gt;PostgresSQL&lt;/div&gt;" style="verticalAlign=top;align=center;shape=cube;size=10;direction=south;html=1;boundedLbl=1;spacingLeft=5;whiteSpace=wrap;" vertex="1" parent="WG5gfJBIS_Pp4yApW_4x-1">
          <mxGeometry width="180" height="290" relative="1" as="geometry">
            <mxPoint x="20" y="70" as="offset" />
          </mxGeometry>
        </mxCell>
        <mxCell id="WG5gfJBIS_Pp4yApW_4x-3" value="«schema»&lt;br&gt;&lt;b&gt;User&lt;/b&gt;" style="html=1;dropTarget=0;whiteSpace=wrap;" vertex="1" parent="WG5gfJBIS_Pp4yApW_4x-1">
          <mxGeometry x="53.800000000000004" y="130.00121951219512" width="112.4" height="44.58975609756097" as="geometry" />
        </mxCell>
        <mxCell id="WG5gfJBIS_Pp4yApW_4x-19" value="«schema»&lt;br&gt;&lt;b&gt;Order&lt;/b&gt;" style="html=1;dropTarget=0;whiteSpace=wrap;" vertex="1" parent="WG5gfJBIS_Pp4yApW_4x-1">
          <mxGeometry x="53.799999999999955" y="187.70975609756096" width="112.4" height="44.58975609756097" as="geometry" />
        </mxCell>
        <mxCell id="WG5gfJBIS_Pp4yApW_4x-21" value="«schema»&lt;br&gt;&lt;b&gt;Printer&lt;/b&gt;" style="html=1;dropTarget=0;whiteSpace=wrap;" vertex="1" parent="WG5gfJBIS_Pp4yApW_4x-1">
          <mxGeometry x="53.799999999999955" y="242.43902439024387" width="112.4" height="44.58975609756097" as="geometry" />
        </mxCell>
        <mxCell id="WG5gfJBIS_Pp4yApW_4x-20" value="«schema»&lt;br&gt;&lt;b&gt;Building&lt;/b&gt;" style="html=1;dropTarget=0;whiteSpace=wrap;" vertex="1" parent="WG5gfJBIS_Pp4yApW_4x-1">
          <mxGeometry x="53.799999999999955" y="298.0487804878049" width="112.4" height="44.58975609756097" as="geometry" />
        </mxCell>
      </root>
    </mxGraphModel>
  </diagram>
</mxfile>
